<?xml version="1.0" standalone="no"?>
<!DOCTYPE svg PUBLIC "-//W3C//DTD SVG 20010904//EN"
 "http://www.w3.org/TR/2001/REC-SVG-20010904/DTD/svg10.dtd">
<svg version="1.0" xmlns="http://www.w3.org/2000/svg"
 width="1587.000000pt" height="2245.000000pt" viewBox="0 0 1587.000000 2245.000000"
 preserveAspectRatio="xMidYMid meet">

<g transform="translate(0.000000,2245.000000) scale(0.100000,-0.100000)"
fill="#000000" stroke="none">
<path d="M0 16755 c0 -4693 2 -5695 13 -5695 24 0 57 -57 57 -99 0 -31 -4 -41
-20 -46 -11 -3 -20 -13 -20 -21 0 -8 -7 -14 -15 -14 -13 0 -15 -611 -15 -5440
l0 -5440 4468 0 c3514 1 4463 3 4450 13 -9 7 -30 20 -47 29 -33 18 -41 38 -16
38 25 0 106 -54 100 -67 -3 -10 691 -13 3455 -13 l3460 0 0 11225 0 11225
-5092 0 -5091 0 23 -25 c18 -19 21 -28 13 -36 -9 -9 -23 -2 -54 25 l-43 36
-2813 0 -2813 0 0 -5695z m5833 5549 c43 -42 52 -64 26 -64 -16 0 -99 82 -99
97 0 25 27 13 73 -33z m187 -201 c0 -25 -26 -13 -69 31 -31 32 -42 50 -37 62
6 15 14 10 56 -31 28 -27 50 -55 50 -62z m66 -60 c51 -47 85 -96 75 -106 -18
-18 -120 91 -106 113 8 13 9 13 31 -7z m173 -196 c43 -56 50 -77 27 -77 -18 0
-100 106 -91 120 11 18 22 11 64 -43z m164 -234 c-9 -22 -24 -10 -67 51 -33
46 -38 59 -26 66 10 6 25 -6 56 -48 23 -31 40 -62 37 -69z m97 -130 c11 -24
20 -46 20 -49 0 -12 -42 29 -71 70 -23 31 -27 42 -17 53 10 12 14 11 30 -9 10
-13 27 -42 38 -65z m99 -157 c34 -59 38 -76 17 -76 -19 0 -80 106 -72 126 8
22 21 11 55 -50z m96 -180 c45 -99 21 -121 -27 -25 -31 62 -34 79 -13 79 9 0
26 -23 40 -54z m84 -191 c25 -67 26 -88 5 -83 -16 3 -41 58 -51 111 -4 20 -1
27 10 27 10 0 23 -21 36 -55z m51 -172 c1 -16 7 -39 15 -53 19 -33 19 -60 0
-60 -16 0 -35 58 -35 108 0 17 5 32 10 32 6 0 10 -12 10 -27z m61 -219 c13
-60 11 -104 -5 -104 -16 0 -43 131 -31 150 11 17 25 -2 36 -46z m24 -176 c3
-13 6 -48 7 -78 2 -43 0 -55 -12 -55 -11 0 -17 17 -24 62 -9 63 -5 93 13 93 6
0 13 -10 16 -22z m10 -269 c0 -59 -3 -74 -15 -74 -11 0 -16 14 -18 54 -4 66 4
104 21 98 8 -2 12 -29 12 -78z m-357 -159 c74 -39 134 -103 171 -180 23 -48
26 -68 26 -160 0 -70 -5 -117 -15 -140 -8 -19 -69 -107 -136 -196 -67 -89
-141 -194 -164 -233 -23 -39 -46 -74 -51 -77 -4 -2 -16 10 -25 28 -28 55 -127
197 -214 308 -124 159 -135 184 -134 305 0 86 4 108 26 155 34 72 65 113 121
156 76 59 128 75 237 71 86 -3 101 -6 158 -37z m345 -38 c-2 -69 -12 -95 -32
-83 -11 7 -11 21 -1 80 15 90 36 92 33 3z m-27 -184 c-10 -68 -26 -108 -43
-108 -12 0 -14 8 -9 38 15 80 27 112 43 112 13 0 14 -8 9 -42z m-51 -167 c6
-10 -31 -119 -46 -135 -6 -6 -13 -6 -19 0 -8 8 18 106 37 137 6 10 21 9 28 -2z
m-85 -203 c0 -7 -7 -22 -15 -32 -8 -11 -15 -27 -15 -36 0 -22 -29 -62 -41 -54
-5 3 -3 16 6 32 8 15 21 44 29 65 14 35 36 51 36 25z m-100 -181 c0 -23 -74
-117 -92 -117 -18 0 -6 32 30 79 36 49 62 65 62 38z m-130 -165 c0 -23 -80
-102 -103 -102 -27 0 -20 14 34 69 56 55 69 61 69 33z m-150 -147 c0 -8 -4
-15 -10 -15 -5 0 -27 -18 -49 -40 -22 -22 -45 -40 -51 -40 -22 0 -5 42 25 58
16 9 36 25 43 35 16 21 42 22 42 2z m-170 -129 c0 -14 -92 -86 -110 -86 -25 0
-6 33 38 65 50 37 72 43 72 21z m-170 -121 c0 -16 -57 -51 -77 -47 -6 1 -14
-2 -18 -8 -3 -5 -14 -10 -23 -10 -13 0 -12 5 8 20 14 11 31 18 38 15 7 -3 10
0 7 5 -3 6 0 10 8 10 8 0 20 7 27 15 16 19 30 19 30 0z m-180 -107 c0 -15 -93
-78 -115 -78 -29 0 -15 20 38 55 55 36 77 43 77 23z m-1496 -70 c25 -42 27
-74 6 -93 -19 -17 -22 -18 -55 -2 -40 19 -54 56 -35 93 18 32 64 33 84 2z
m1323 -45 c4 -10 -99 -83 -117 -83 -26 0 -5 33 42 65 52 35 68 39 75 18z
m-177 -117 c0 -15 -90 -86 -109 -86 -26 0 -8 32 37 65 51 37 72 43 72 21z
m-207 -177 c-55 -52 -73 -60 -73 -31 0 25 100 106 114 92 8 -8 -3 -25 -41 -61z
m-108 -88 c6 -11 -72 -105 -91 -109 -27 -7 -13 29 27 73 42 46 53 52 64 36z
m-128 -168 c2 -6 -9 -26 -25 -45 -16 -18 -31 -42 -33 -53 -3 -11 -11 -20 -19
-20 -19 0 -14 37 6 48 8 4 14 15 14 23 0 8 7 26 16 40 17 25 34 28 41 7z
m-107 -192 c0 -11 -4 -23 -10 -26 -5 -3 -10 -19 -10 -34 0 -31 -24 -70 -36
-58 -5 4 -3 17 4 27 7 11 12 30 12 42 0 39 12 68 26 68 8 0 14 -9 14 -19z
m-56 -180 c7 -11 -15 -133 -26 -145 -5 -6 -12 -6 -19 1 -7 7 -7 29 1 74 7 35
14 67 16 71 7 11 22 10 28 -1z m-29 -279 c0 -99 -19 -97 -23 1 -2 61 0 78 10
75 9 -3 13 -27 13 -76z m13 -149 c5 -10 13 -44 16 -75 6 -48 5 -58 -7 -58 -19
0 -24 15 -33 89 -7 62 5 82 24 44z m63 -257 c19 -57 20 -86 0 -86 -11 0 -37
63 -47 114 -6 33 -4 37 10 34 11 -2 25 -25 37 -62z m73 -190 c28 -60 33 -90
14 -84 -14 5 -68 104 -68 125 0 32 31 8 54 -41z m1540 -146 c73 -35 142 -103
178 -178 31 -63 33 -72 33 -177 0 -131 -4 -141 -126 -295 -92 -118 -219 -305
-219 -325 0 -7 20 -20 45 -29 25 -10 45 -24 45 -32 0 -38 -134 15 -136 53 -2
29 -83 153 -211 321 -127 166 -147 214 -140 329 11 187 144 339 315 361 77 10
161 -1 216 -28z m-1439 -36 c33 -52 41 -95 14 -78 -18 11 -69 97 -69 116 0 32
19 19 55 -38z m156 -207 c19 -25 19 -28 3 -34 -10 -4 -22 1 -33 14 -73 91 -75
94 -60 104 14 9 41 -16 90 -84z m111 -114 c47 -47 60 -73 35 -73 -19 0 -110
97 -103 109 11 17 17 14 68 -36z m155 -134 c53 -42 68 -69 36 -69 -25 1 -118
84 -109 99 10 16 14 15 73 -30z m168 -125 c52 -35 71 -64 42 -64 -16 0 -117
68 -117 79 0 8 10 21 17 21 2 0 28 -16 58 -36z m185 -115 c48 -30 62 -58 26
-51 -28 5 -106 56 -106 69 0 21 27 15 80 -18z m175 -95 c60 -28 73 -40 57 -56
-11 -11 -27 -4 -95 39 -21 13 -35 28 -32 33 8 14 9 13 70 -16z m193 -90 c59
-26 83 -54 44 -54 -30 0 -122 49 -122 65 0 20 5 19 78 -11z m391 -171 c28 -9
51 -22 51 -30 0 -19 -14 -16 -70 13 -74 38 -66 45 19 17z m195 -81 c86 -47 61
-75 -26 -30 -56 28 -69 38 -62 49 9 15 36 9 88 -19z m172 -93 c60 -34 71 -46
56 -61 -7 -7 -30 2 -71 27 -60 37 -67 45 -54 58 9 10 11 10 69 -24z m150 -114
c-3 -9 0 -12 10 -8 9 3 27 -6 45 -23 33 -32 37 -44 12 -44 -24 1 -116 87 -108
100 9 15 48 -8 41 -25z m182 -156 c44 -54 48 -64 32 -74 -13 -8 -99 84 -100
108 0 31 26 18 68 -34z m117 -172 c46 -93 24 -121 -26 -31 -15 27 -28 59 -28
71 -1 37 25 17 54 -40z m66 -164 c6 -16 13 -50 16 -77 5 -38 3 -48 -8 -44 -12
4 -49 105 -49 136 0 23 31 12 41 -15z m7349 -84 c0 -22 -26 -32 -51 -19 -25
14 -24 25 3 52 20 20 22 20 35 3 7 -11 13 -26 13 -36z m-7312 -164 c3 -75 -11
-106 -28 -61 -11 31 -14 119 -3 130 18 17 28 -6 31 -69z m-6 -191 c-4 -72 -10
-94 -28 -94 -14 0 -15 9 -9 68 8 75 12 85 28 79 8 -3 11 -23 9 -53z m-37 -191
c-9 -50 -35 -113 -46 -113 -19 0 -20 31 -4 77 10 26 19 54 21 61 2 6 11 12 20
12 13 0 15 -7 9 -37z m-65 -177 c0 -16 -45 -105 -61 -120 -6 -6 -13 -6 -19 0
-14 14 44 134 65 134 8 0 15 -7 15 -14z m-100 -183 c-1 -25 -67 -113 -85 -113
-23 0 -18 15 21 75 37 55 64 71 64 38z m-120 -165 c0 -19 -79 -108 -96 -108
-25 0 -15 26 27 74 39 45 69 59 69 34z m-189 -208 c-29 -28 -57 -50 -62 -50
-20 0 -6 25 42 72 39 39 53 48 62 39 9 -9 0 -23 -42 -61z m-1050 -23 c71 -34
152 -118 186 -194 19 -41 28 -80 31 -135 5 -91 -8 -149 -50 -214 -29 -47 -26
-48 29 -8 38 28 53 30 53 7 0 -25 -109 -96 -125 -83 -9 7 -17 3 -29 -15 -9
-14 -14 -25 -10 -25 3 0 -18 -27 -48 -59 -31 -32 -86 -107 -123 -165 -37 -58
-71 -103 -75 -101 -4 3 -27 37 -50 76 -23 39 -98 145 -165 234 -144 191 -160
227 -153 349 6 124 68 235 170 307 92 66 252 77 359 26z m938 -61 c9 -11 0
-23 -45 -60 -54 -44 -74 -50 -74 -22 0 10 94 94 106 96 1 0 7 -6 13 -14z
m-159 -136 c0 -12 -103 -90 -118 -90 -26 0 -9 31 34 65 45 34 84 46 84 25z
m-176 -115 c6 -17 -87 -85 -117 -85 -30 0 -15 21 44 62 61 43 65 44 73 23z
m-174 -119 c0 -13 -106 -86 -124 -86 -3 0 -6 8 -6 19 0 11 19 30 48 49 52 33
82 40 82 18z m-630 -544 c0 -22 -56 -112 -70 -112 -16 0 -12 32 11 75 29 55
59 73 59 37z m-90 -183 c0 -33 -36 -139 -47 -139 -19 0 -20 42 -3 90 4 14 11
33 14 43 6 18 36 24 36 6z m5086 -50 c10 -17 -13 -36 -27 -22 -12 12 -4 33 11
33 5 0 12 -5 16 -11z m-10236 -49 c0 -5 -5 -10 -11 -10 -5 0 -7 5 -4 10 3 6 8
10 11 10 2 0 4 -4 4 -10z m5111 -166 c6 -76 -4 -101 -27 -70 -14 20 -20 127
-7 140 17 17 28 -6 34 -70z m43 -200 c25 -63 25 -92 0 -76 -17 11 -41 63 -49
105 -12 63 18 45 49 -29z m66 -135 c0 -7 18 -32 40 -56 37 -39 44 -63 20 -63
-15 0 -60 54 -60 71 0 9 -7 19 -15 23 -8 3 -15 12 -15 21 0 8 7 15 15 15 8 0
15 -5 15 -11z m176 -195 c57 -49 63 -59 39 -68 -19 -7 -121 86 -111 102 11 17
13 16 72 -34z m158 -119 c63 -40 74 -53 51 -61 -16 -6 -125 59 -125 74 0 9 10
22 16 22 2 0 28 -16 58 -35z m186 -105 c33 -17 60 -37 60 -45 0 -21 -18 -19
-75 11 -61 32 -69 39 -61 53 10 15 9 15 76 -19z m190 -85 c25 -10 51 -24 59
-31 13 -11 12 -14 -2 -20 -16 -6 -111 28 -131 46 -11 11 3 33 18 27 6 -3 31
-13 56 -22z m198 -82 c60 -27 82 -53 43 -53 -24 0 -131 47 -131 58 0 10 11 22
19 22 3 0 34 -12 69 -27z m195 -87 c31 -15 57 -33 57 -41 0 -22 -17 -19 -89
15 -53 26 -61 33 -51 45 7 8 15 13 19 11 3 -2 32 -15 64 -30z m172 -91 c53
-32 72 -52 58 -66 -10 -10 -133 63 -133 81 0 17 29 11 75 -15z m154 -122 c50
-38 61 -50 54 -57 -11 -11 -19 -7 -54 24 -19 16 -37 30 -41 30 -10 0 -11 30
-1 30 3 0 22 -12 42 -27z m187 -129 c43 -34 57 -64 32 -64 -17 1 -98 75 -98
89 0 20 22 12 66 -25z m153 -138 c26 -27 32 -39 24 -47 -15 -15 -110 72 -99
89 10 16 32 3 75 -42z m119 -119 c44 -45 50 -57 29 -57 -17 0 -99 84 -91 93
12 12 19 8 62 -36z m893 -44 c81 -40 140 -102 182 -191 28 -60 32 -77 32 -157
0 -114 -20 -159 -135 -305 -105 -133 -220 -306 -220 -331 0 -11 7 -33 15 -50
15 -29 13 -49 -5 -49 -12 0 -33 40 -54 103 -18 55 -106 189 -213 326 -90 115
-119 163 -132 219 -5 24 -19 54 -30 66 -27 29 -27 48 1 44 20 -3 23 3 29 44
14 93 77 197 152 250 69 49 137 69 227 66 73 -3 95 -8 151 -35z m-761 -88 c35
-36 42 -47 31 -57 -10 -11 -21 -3 -56 36 -40 43 -49 66 -26 66 4 0 27 -20 51
-45z m124 -137 c33 -39 46 -68 29 -68 -13 0 -93 84 -93 97 0 25 29 12 64 -29z
m546 -925 c0 -16 7 -37 15 -47 19 -25 19 -56 0 -56 -8 0 -18 15 -23 38 -13 52
-14 92 -2 92 6 0 10 -12 10 -27z m59 -190 c15 -54 14 -93 -3 -93 -14 0 -18 11
-32 93 -5 30 -3 37 9 37 10 0 20 -15 26 -37z m26 -165 c3 -13 6 -43 7 -68 2
-34 -1 -45 -12 -45 -11 0 -17 16 -22 55 -4 30 -5 61 -3 68 7 20 24 14 30 -10z
m19 -217 c7 -54 1 -81 -20 -81 -11 0 -14 16 -14 63 0 35 3 67 6 70 13 13 21
-3 28 -52z m-4832 30 c70 -31 101 -71 105 -138 5 -70 -19 -116 -72 -138 -64
-27 -100 -45 -117 -57 -21 -15 -43 -4 -108 56 l-43 38 10 85 c15 120 45 149
175 172 3 0 26 -7 50 -18z m1318 -66 c0 -16 -35 -21 -45 -6 -4 8 9 15 38 20 4
0 7 -6 7 -14z m3505 -157 c-4 -35 -11 -67 -15 -72 -15 -15 -29 4 -25 32 2 15
7 44 10 65 4 24 11 37 21 37 14 0 15 -10 9 -62z m-22 -126 c7 -10 -13 -115
-24 -126 -26 -27 -29 56 -4 122 5 13 21 16 28 4z m-43 -189 c0 -10 -8 -39 -17
-65 -12 -33 -23 -48 -35 -48 -10 0 -18 1 -18 3 0 4 42 112 46 119 9 14 24 8
24 -9z m-4364 -131 c-22 -5 -30 3 -21 18 5 8 11 7 22 -2 15 -12 14 -13 -1 -16z
m4294 -42 c0 -6 -4 -18 -9 -28 -5 -9 -15 -32 -21 -49 -7 -18 -19 -33 -26 -33
-17 0 -18 12 -2 28 6 6 13 17 14 24 5 29 24 68 34 68 5 0 10 -5 10 -10z m-86
-159 c6 -9 -48 -96 -66 -107 -5 -3 -14 -2 -19 3 -5 5 6 30 26 61 35 51 48 61
59 43z m-184 -51 c0 -5 -4 -10 -9 -10 -6 0 -13 5 -16 10 -3 6 1 10 9 10 9 0
16 -4 16 -10z m74 -98 c3 -5 -15 -30 -40 -57 -32 -36 -47 -46 -55 -38 -8 8 -1
24 27 57 37 44 57 55 68 38z m-134 -138 c0 -9 -9 -18 -20 -21 -11 -3 -20 -11
-20 -18 0 -7 -12 -20 -26 -30 -20 -13 -29 -14 -38 -5 -8 9 -5 16 13 28 13 10
33 27 45 38 25 26 46 30 46 8z m-140 -116 c-1 -14 -82 -78 -99 -78 -27 0 -17
22 25 54 48 37 74 45 74 24z m-150 -107 c0 -14 -58 -53 -69 -46 -5 3 -12 1
-16 -5 -3 -5 -12 -10 -18 -10 -16 1 32 40 48 40 7 0 18 7 25 15 14 17 30 20
30 6z m-7800 -51 c0 -5 -2 -10 -4 -10 -3 0 -8 5 -11 10 -3 6 -1 10 4 10 6 0
11 -4 11 -10z m7640 -45 c0 -19 -90 -84 -107 -78 -18 7 -9 19 50 58 60 40 57
39 57 20z m-153 -112 c4 -11 -79 -73 -97 -73 -27 0 -15 23 27 54 48 35 64 39
70 19z m-147 -105 c-1 -14 -82 -78 -99 -78 -27 0 -17 22 25 54 48 37 74 45 74
24z m-150 -116 c0 -15 -79 -92 -94 -92 -17 0 -1 29 36 67 46 47 58 52 58 25z
m-130 -128 c0 -16 -69 -104 -82 -104 -19 0 -5 36 28 76 37 46 54 55 54 28z
m-4597 -95 c-8 -8 -16 -8 -30 0 -16 9 -14 10 12 11 21 0 26 -3 18 -11z m4487
-53 c0 -7 -10 -26 -22 -42 -12 -15 -23 -34 -24 -42 -2 -8 -7 -19 -13 -25 -18
-18 -25 22 -7 42 9 10 16 22 16 27 0 14 30 54 41 54 5 0 9 -6 9 -14z m-90
-175 c0 -11 -4 -23 -10 -26 -5 -3 -10 -18 -10 -33 0 -31 -15 -60 -26 -50 -3 4
-3 15 1 25 4 10 7 28 6 40 -3 25 15 63 29 63 6 0 10 -9 10 -19z m-48 -217 c-4
-62 -13 -81 -32 -69 -8 5 -9 25 -4 63 7 65 11 75 27 69 8 -2 11 -24 9 -63z
m-6431 -1 c-9 -16 -10 -14 -11 12 0 21 3 26 11 18 8 -8 8 -16 0 -30z m6421
-180 c4 -57 -5 -88 -23 -77 -5 3 -9 34 -9 70 0 48 3 64 14 64 10 0 15 -17 18
-57z m11 -136 c3 -8 8 -40 12 -72 6 -47 5 -57 -6 -53 -16 5 -43 103 -35 124 7
18 22 18 29 1z m1857 -53 c12 -31 6 -44 -21 -44 -25 0 -34 22 -19 49 15 28 28
26 40 -5z m-1799 -179 c19 -50 18 -82 -1 -70 -12 7 -33 56 -44 98 -12 50 24
28 45 -28z m72 -170 c31 -65 32 -65 12 -65 -14 0 -65 86 -65 110 0 28 29 4 53
-45z m-4643 -13 c0 -13 -12 -22 -22 -16 -10 6 -1 24 13 24 5 0 9 -4 9 -8z
m6196 -67 c148 -44 255 -182 271 -350 11 -116 -11 -160 -193 -400 -45 -59 -96
-132 -114 -162 -30 -50 -32 -56 -17 -65 25 -13 21 -31 -5 -25 -12 4 -28 1 -35
-5 -15 -12 -30 2 -60 57 -30 55 -110 169 -193 275 -112 142 -132 188 -132 298
0 103 22 171 79 246 94 122 253 175 399 131z m-1461 -75 c32 -44 38 -70 16
-70 -11 0 -71 89 -71 105 0 27 18 16 55 -35z m115 -146 c32 -35 39 -49 30 -57
-9 -9 -22 -1 -56 36 -39 44 -48 67 -25 67 5 0 28 -21 51 -46z m-5490 -24 c0
-5 -2 -10 -4 -10 -3 0 -8 5 -11 10 -3 6 -1 10 4 10 6 0 11 -4 11 -10z m-215
-29 c3 -5 1 -12 -5 -16 -5 -3 -10 1 -10 9 0 18 6 21 15 7z m5835 -77 c38 -35
52 -64 30 -64 -13 0 -100 79 -100 91 0 20 32 7 70 -27z m141 -120 c50 -37 61
-54 34 -54 -21 0 -104 62 -105 78 0 20 20 14 71 -24z m151 -105 c47 -30 56
-43 40 -53 -11 -6 -104 55 -110 72 -6 20 19 14 70 -19z m164 -95 c43 -25 52
-38 36 -48 -11 -6 -105 46 -110 62 -6 20 26 14 74 -14z m159 -81 c49 -24 73
-53 45 -53 -24 0 -110 51 -110 65 0 20 0 19 65 -12z m172 -75 c51 -21 71 -48
36 -48 -26 1 -106 43 -111 58 -5 18 15 15 75 -10z m172 -69 c28 -12 51 -28 51
-35 0 -17 4 -17 -56 2 -56 19 -76 32 -68 45 8 13 15 12 73 -12z m344 -139 c52
-23 65 -37 44 -46 -17 -6 -117 42 -117 56 0 15 23 12 73 -10z m212 -111 c5 -6
5 -13 -2 -20 -8 -8 -24 -3 -60 17 -26 15 -50 29 -52 30 -2 2 -1 10 3 19 5 15
12 14 54 -10 26 -15 51 -32 57 -36z m79 -54 c3 -8 11 -15 19 -15 22 0 62 -49
50 -61 -7 -7 -20 0 -43 21 -18 17 -42 36 -52 41 -10 6 -16 14 -13 20 9 14 32
11 39 -6z m170 -147 c38 -44 42 -53 27 -62 -11 -7 -91 74 -91 92 0 24 29 11
64 -30z m108 -154 c32 -57 33 -64 13 -64 -16 0 -77 99 -69 112 11 17 29 1 56
-48z m58 -134 c6 -10 13 -40 16 -65 5 -36 4 -45 -8 -45 -13 0 -38 75 -38 116
0 20 18 17 30 -6z m38 -229 c2 -48 0 -62 -10 -59 -8 3 -14 27 -16 67 -2 48 0
62 10 59 8 -3 14 -27 16 -67z m1 -159 c-1 -51 -12 -85 -28 -90 -11 -4 -12 8
-6 59 4 35 9 67 12 72 10 17 23 -7 22 -41z m-29 -167 c0 -35 -30 -107 -44
-102 -14 5 -14 10 4 75 14 54 40 71 40 27z m-55 -154 c6 -11 -44 -121 -56
-121 -20 0 -17 23 8 74 27 55 36 65 48 47z m-85 -174 c0 -17 -59 -107 -70
-107 -29 0 -15 36 39 103 17 20 31 22 31 4z m-100 -148 c0 -16 -73 -99 -87
-99 -22 0 -15 19 23 66 34 41 64 57 64 33z m-126 -138 c6 -9 -79 -91 -95 -91
-16 0 -10 9 33 55 43 46 53 51 62 36z m-134 -135 c0 -21 -92 -88 -104 -76 -7
7 3 23 34 50 47 41 70 50 70 26z m-140 -116 c0 -12 -89 -80 -106 -80 -26 0
-13 25 29 57 41 31 77 42 77 23z m-930 -26 c144 -46 250 -204 250 -372 l0 -65
23 21 c13 12 29 22 35 22 24 0 11 -27 -32 -62 -24 -20 -57 -61 -75 -90 -17
-29 -71 -105 -120 -168 -49 -63 -87 -118 -85 -122 3 -4 0 -35 -7 -68 -13 -66
-36 -81 -41 -27 l-3 32 -34 -59 c-30 -52 -36 -57 -45 -42 -42 70 -181 269
-251 360 -103 134 -119 175 -113 295 5 107 39 183 112 256 104 104 241 135
386 89z m780 -84 c0 -13 -102 -80 -112 -74 -17 11 -7 24 44 58 48 33 68 37 68
16z m-155 -100 c5 -8 -90 -80 -107 -80 -22 0 -3 33 35 59 44 32 62 37 72 21z
m-155 -105 c0 -14 -85 -84 -102 -85 -23 0 -2 34 38 65 51 38 64 43 64 20z
m-498 -790 c5 -37 4 -63 -3 -70 -17 -17 -29 15 -29 78 0 78 22 72 32 -8z m58
-228 c0 -32 -24 -12 -44 35 -12 28 -16 53 -11 65 6 15 12 9 31 -32 13 -27 24
-58 24 -68z m47 -74 c4 -10 20 -28 35 -41 28 -24 37 -52 17 -52 -13 0 -48 41
-49 56 0 7 -7 14 -15 18 -17 6 -21 36 -5 36 6 0 14 -8 17 -17z m159 -160 c42
-35 57 -63 33 -63 -17 0 -99 71 -99 86 0 23 19 16 66 -23z m151 -109 c38 -24
52 -39 45 -46 -15 -15 -112 41 -112 65 0 23 3 22 67 -19z m164 -85 c27 -12 49
-28 49 -35 0 -19 -8 -18 -69 7 -28 12 -51 28 -51 35 0 19 13 18 71 -7z m-5186
-29 c-5 -8 -11 -8 -17 -2 -6 6 -7 16 -3 22 5 8 11 8 17 2 6 -6 7 -16 3 -22z
m5354 -41 c46 -20 70 -49 39 -49 -26 0 -119 50 -113 60 9 14 15 13 74 -11z
m182 -70 c47 -21 58 -32 41 -43 -14 -9 -122 36 -122 50 0 20 24 17 81 -7z
m162 -68 c48 -21 64 -36 47 -46 -13 -8 -120 40 -120 54 0 16 23 13 73 -8z"/>
<path d="M6353 19744 c-95 -47 -98 -210 -6 -257 62 -32 128 -21 171 28 108
122 -21 300 -165 229z"/>
<path d="M6351 16233 c-95 -47 -96 -209 -2 -258 69 -35 158 -6 193 65 63 124
-66 254 -191 193z"/>
<path d="M5805 12980 c-134 -66 -88 -273 60 -273 109 0 177 124 120 221 -20
33 -85 72 -121 72 -10 0 -37 -9 -59 -20z"/>
<path d="M8373 9919 c-91 -27 -123 -164 -55 -237 89 -95 242 -32 242 98 0 102
-90 169 -187 139z"/>
<path d="M8377 4925 c-48 -17 -67 -33 -84 -72 -40 -96 13 -193 113 -208 79
-12 154 57 154 142 0 104 -88 171 -183 138z"/>
<path d="M7483 1840 c-48 -29 -67 -65 -67 -124 0 -149 193 -203 260 -74 68
131 -71 273 -193 198z"/>
</g>
</svg>
